<?xml version="1.0" standalone="no"?>
<!DOCTYPE svg PUBLIC "-//W3C//DTD SVG 20010904//EN"
 "http://www.w3.org/TR/2001/REC-SVG-20010904/DTD/svg10.dtd">
<svg version="1.0" xmlns="http://www.w3.org/2000/svg"
 width="512.000000pt" height="512.000000pt" viewBox="0 0 512.000000 512.000000"
 preserveAspectRatio="xMidYMid meet">
<metadata>
Created by potrace 1.14, written by Peter Selinger 2001-2017
</metadata>
<g transform="translate(0.000000,512.000000) scale(0.100000,-0.100000)"
fill="#000000" stroke="none">
<path d="M1380 4705 c-60 -19 -121 -73 -162 -143 -18 -31 -38 -66 -45 -77 -7
-11 -16 -27 -20 -35 -4 -8 -27 -49 -51 -90 -25 -41 -53 -90 -64 -108 -10 -18
-58 -102 -107 -185 -48 -84 -120 -208 -160 -277 -40 -69 -76 -132 -81 -140
-28 -45 -250 -431 -250 -434 0 -1 -24 -43 -53 -92 -30 -49 -65 -109 -79 -134
-14 -25 -58 -101 -98 -170 -86 -146 -110 -204 -110 -263 1 -62 16 -96 127
-288 56 -96 109 -188 120 -206 10 -18 76 -132 147 -255 72 -123 143 -245 158
-273 16 -27 38 -66 50 -85 71 -121 356 -614 381 -660 16 -30 36 -62 43 -71 8
-8 14 -18 14 -22 0 -21 121 -205 153 -232 80 -69 9 -65 1268 -65 1113 0 1139
0 1192 20 30 11 68 36 89 57 27 29 259 415 352 588 6 11 16 27 22 35 6 8 25
40 41 70 17 30 51 90 76 133 26 43 47 81 47 83 0 3 17 33 38 67 22 34 101 170
177 302 76 132 199 343 272 470 73 126 138 248 144 270 17 60 5 136 -30 200
-51 93 -233 408 -251 435 -9 14 -33 54 -53 90 -19 36 -96 170 -171 299 -75
128 -136 235 -136 237 0 3 -37 65 -77 129 -7 11 -22 38 -34 60 -12 22 -36 65
-54 95 -72 121 -235 402 -235 407 0 2 -16 29 -35 59 -19 30 -35 58 -35 62 0
18 -86 105 -124 125 l-41 22 -1155 2 c-969 2 -1162 0 -1200 -12z"/>
</g>
</svg>
